# xmcd
#
# Track frame offsets:
#	150
#	24098
#	42513
#	62894
#	76206
#	92838
#
# Disc length: 1452 seconds
#
# Revision: 1
# Processed by: cddbd v1.5.2PL0 Copyright (c) Steve Scherf et al.
# Submitted via: EasyCDDAExtractor 11.0.3.1
#
DISCID=4105aa06
DTITLE=Portland - Mon Coeur Ce con
DYEAR=2009
DGENRE=Blues
TTITLE0=Habituel
TTITLE1=Regarde
TTITLE2=Mon Coeur ce con
TTITLE3=L'entendement
TTITLE4=On est né comme on est
TTITLE5=Toi
EXTD=
EXTT0=
EXTT1=
EXTT2=
EXTT3=
EXTT4=
EXTT5=
PLAYORDER=
